<svg xmlns="http://www.w3.org/2000/svg" width="1440" height="900"><path d="M949,600L849,879L1284,900Z" fill="#1c413b" stroke="#1c413b" stroke-width="1.51"/><path d="M1284,900L1279,537L949,600Z" fill="#1b433d" stroke="#1b433d" stroke-width="1.51"/><path d="M849,879L1222,1216L1284,900Z" fill="#1c332f" stroke="#1c332f" stroke-width="1.51"/><path d="M849,879L822,1313L1222,1216Z" fill="#1c3c36" stroke="#1c3c36" stroke-width="1.51"/><path d="M413,543L676,1025L849,879Z" fill="#455f71" stroke="#455f71" stroke-width="1.51"/><path d="M1284,900L1489,519L1279,537Z" fill="#1c3c37" stroke="#1c3c37" stroke-width="1.51"/><path d="M1222,1216L1564,884L1284,900Z" fill="#1b2724" stroke="#1b2724" stroke-width="1.51"/><path d="M1564,884L1489,519L1284,900Z" fill="#1c2e2a" stroke="#1c2e2a" stroke-width="1.51"/><path d="M676,1025L822,1313L849,879Z" fill="#324b52" stroke="#324b52" stroke-width="1.51"/><path d="M949,600L413,543L849,879Z" fill="#39646d" stroke="#39646d" stroke-width="1.51"/><path d="M1279,537L942,176L949,600Z" fill="#3e6875" stroke="#3e6875" stroke-width="1.51"/><path d="M1204,150L942,176L1279,537Z" fill="#597796" stroke="#597796" stroke-width="1.51"/><path d="M1489,519L1204,150L1279,537Z" fill="#445e71" stroke="#445e71" stroke-width="1.51"/><path d="M942,176L547,327L949,600Z" fill="#6187aa" stroke="#6187aa" stroke-width="1.51"/><path d="M547,327L413,543L949,600Z" fill="#5e85a6" stroke="#5e85a6" stroke-width="1.51"/><path d="M676,1025L422,1395L822,1313Z" fill="#44586b" stroke="#44586b" stroke-width="1.51"/><path d="M1564,884L1842,897L1489,519Z" fill="#1c2e2a" stroke="#1c2e2a" stroke-width="1.51"/><path d="M1489,519L1706,239L1204,150Z" fill="#586586" stroke="#586586" stroke-width="1.51"/><path d="M1908,1380L1842,897L1564,884Z" fill="#1a2320" stroke="#1a2320" stroke-width="1.51"/><path d="M1222,1216L1556,1444L1564,884Z" fill="#1a2320" stroke="#1a2320" stroke-width="1.51"/><path d="M940,1652L1331,1554L1222,1216Z" fill="#1c312d" stroke="#1c312d" stroke-width="1.51"/><path d="M1331,1554L1556,1444L1222,1216Z" fill="#1b2623" stroke="#1b2623" stroke-width="1.51"/><path d="M413,543L262,978L676,1025Z" fill="#566889" stroke="#566889" stroke-width="1.51"/><path d="M1865,278L1706,239L1489,519Z" fill="#4f607a" stroke="#4f607a" stroke-width="1.51"/><path d="M822,1313L940,1652L1222,1216Z" fill="#1c3a34" stroke="#1c3a34" stroke-width="1.51"/><path d="M456,1679L940,1652L822,1313Z" fill="#384f5a" stroke="#384f5a" stroke-width="1.51"/><path d="M262,978L422,1395L676,1025Z" fill="#566485" stroke="#566485" stroke-width="1.51"/><path d="M942,176L831,-58L547,327Z" fill="#5b81b3" stroke="#5b81b3" stroke-width="1.51"/><path d="M1204,150L831,-58L942,176Z" fill="#396688" stroke="#396688" stroke-width="1.51"/><path d="M1357,-105L831,-58L1204,150Z" fill="#295376" stroke="#295376" stroke-width="1.51"/><path d="M413,543L173,634L262,978Z" fill="#476889" stroke="#476889" stroke-width="1.51"/><path d="M118,189L173,634L413,543Z" fill="#6185bb" stroke="#6185bb" stroke-width="1.51"/><path d="M118,189L413,543L547,327Z" fill="#859fe4" stroke="#859fe4" stroke-width="1.51"/><path d="M1706,239L1357,-105L1204,150Z" fill="#394e71" stroke="#394e71" stroke-width="1.51"/><path d="M1706,239L1703,-63L1357,-105Z" fill="#2e4468" stroke="#2e4468" stroke-width="1.51"/><path d="M2039,661L1865,278L1489,519Z" fill="#334b53" stroke="#334b53" stroke-width="1.51"/><path d="M2194,873L2039,661L1842,897Z" fill="#1b2a26" stroke="#1b2a26" stroke-width="1.51"/><path d="M1842,897L2039,661L1489,519Z" fill="#1c342f" stroke="#1c342f" stroke-width="1.51"/><path d="M1556,1444L1908,1380L1564,884Z" fill="#1a2320" stroke="#1a2320" stroke-width="1.51"/><path d="M1692,1630L1908,1380L1556,1444Z" fill="#1a2320" stroke="#1a2320" stroke-width="1.51"/><path d="M1331,1554L1692,1630L1556,1444Z" fill="#1a2320" stroke="#1a2320" stroke-width="1.51"/><path d="M940,1652L1692,1630L1331,1554Z" fill="#1b2925" stroke="#1b2925" stroke-width="1.51"/><path d="M1865,278L1703,-63L1706,239Z" fill="#425476" stroke="#425476" stroke-width="1.51"/><path d="M940,1652L1994,1783L1692,1630Z" fill="#1a2320" stroke="#1a2320" stroke-width="1.51"/><path d="M422,1395L456,1679L822,1313Z" fill="#4d5e78" stroke="#4d5e78" stroke-width="1.51"/><path d="M93,1599L456,1679L422,1395Z" fill="#495a7c" stroke="#495a7c" stroke-width="1.51"/><path d="M831,-58L657,-196L547,327Z" fill="#537ab6" stroke="#537ab6" stroke-width="1.51"/><path d="M1024,-354L657,-196L831,-58Z" fill="#396895" stroke="#396895" stroke-width="1.51"/><path d="M1024,-354L831,-58L1357,-105Z" fill="#295779" stroke="#295779" stroke-width="1.51"/><path d="M262,978L141,1414L422,1395Z" fill="#455678" stroke="#455678" stroke-width="1.51"/><path d="M-259,998L141,1414L262,978Z" fill="#2f4568" stroke="#2f4568" stroke-width="1.51"/><path d="M1908,1380L2194,873L1842,897Z" fill="#1a2320" stroke="#1a2320" stroke-width="1.51"/><path d="M2039,661L2268,190L1865,278Z" fill="#495b71" stroke="#495b71" stroke-width="1.51"/><path d="M1865,278L2057,1L1703,-63Z" fill="#364a6d" stroke="#364a6d" stroke-width="1.51"/><path d="M173,634L-118,721L262,978Z" fill="#355577" stroke="#355577" stroke-width="1.51"/><path d="M106,7L118,189L547,327Z" fill="#6f8edd" stroke="#6f8edd" stroke-width="1.51"/><path d="M1345,-354L1024,-354L1357,-105Z" fill="#2a4d70" stroke="#2a4d70" stroke-width="1.51"/><path d="M1703,-63L1345,-354L1357,-105Z" fill="#2a4265" stroke="#2a4265" stroke-width="1.51"/><path d="M-46,195L-118,721L173,634Z" fill="#3b6997" stroke="#3b6997" stroke-width="1.51"/><path d="M118,189L-46,195L173,634Z" fill="#6a8ad3" stroke="#6a8ad3" stroke-width="1.51"/><path d="M657,-196L106,7L547,327Z" fill="#6c8cdb" stroke="#6c8cdb" stroke-width="1.51"/><path d="M-44,54L106,7L-125,-416Z" fill="#2b63b3" stroke="#2b63b3" stroke-width="1.51"/><path d="M141,1414L93,1599L422,1395Z" fill="#405274" stroke="#405274" stroke-width="1.51"/><path d="M-226,1347L93,1599L141,1414Z" fill="#2b4265" stroke="#2b4265" stroke-width="1.51"/><path d="M2246,1333L2331,678L2194,873Z" fill="#1a2320" stroke="#1a2320" stroke-width="1.51"/><path d="M2194,873L2331,678L2039,661Z" fill="#1c302c" stroke="#1c302c" stroke-width="1.51"/><path d="M2268,190L2057,1L1865,278Z" fill="#435476" stroke="#435476" stroke-width="1.51"/><path d="M1703,-63L1505,-479L1345,-354Z" fill="#2a4265" stroke="#2a4265" stroke-width="1.51"/><path d="M-44,54L-46,195L118,189Z" fill="#4d76c5" stroke="#4d76c5" stroke-width="1.51"/><path d="M1908,1380L2246,1333L2194,873Z" fill="#1a2320" stroke="#1a2320" stroke-width="1.51"/><path d="M1994,1783L2246,1333L1908,1380Z" fill="#1a2320" stroke="#1a2320" stroke-width="1.51"/><path d="M106,7L-44,54L118,189Z" fill="#4772c2" stroke="#4772c2" stroke-width="1.51"/><path d="M-609,897L-259,998L-614,685Z" fill="#2a4569" stroke="#2a4569" stroke-width="1.51"/><path d="M324,-525L106,7L657,-196Z" fill="#5b80cf" stroke="#5b80cf" stroke-width="1.51"/><path d="M2331,678L2268,190L2039,661Z" fill="#2e484d" stroke="#2e484d" stroke-width="1.51"/><path d="M-449,161L-118,721L-46,195Z" fill="#5c80c6" stroke="#5c80c6" stroke-width="1.51"/><path d="M-118,721L-259,998L262,978Z" fill="#2a4265" stroke="#2a4265" stroke-width="1.51"/><path d="M1692,1630L1994,1783L1908,1380Z" fill="#1a2320" stroke="#1a2320" stroke-width="1.51"/><path d="M456,1679L1994,1783L940,1652Z" fill="#1c332e" stroke="#1c332e" stroke-width="1.51"/><path d="M1935,-337L1505,-479L1703,-63Z" fill="#2a4265" stroke="#2a4265" stroke-width="1.51"/><path d="M1345,-354L1505,-479L1024,-354Z" fill="#2a4a6d" stroke="#2a4a6d" stroke-width="1.51"/><path d="M-259,998L-226,1347L141,1414Z" fill="#2a4265" stroke="#2a4265" stroke-width="1.51"/><path d="M2057,1L1935,-337L1703,-63Z" fill="#2a4265" stroke="#2a4265" stroke-width="1.51"/><path d="M2268,190L2276,39L2057,1Z" fill="#364a6d" stroke="#364a6d" stroke-width="1.51"/><path d="M2331,678L2276,39L2268,190Z" fill="#586586" stroke="#586586" stroke-width="1.51"/><path d="M2195,-478L1935,-337L2057,1Z" fill="#2a4265" stroke="#2a4265" stroke-width="1.51"/><path d="M1024,-354L425,-560L657,-196Z" fill="#4b75ae" stroke="#4b75ae" stroke-width="1.51"/><path d="M1505,-479L425,-560L1024,-354Z" fill="#285b7e" stroke="#285b7e" stroke-width="1.51"/><path d="M425,-560L324,-525L657,-196Z" fill="#6888d8" stroke="#6888d8" stroke-width="1.51"/><path d="M2246,1333L2237,1785L2331,678Z" fill="#1a2320" stroke="#1a2320" stroke-width="1.51"/><path d="M1994,1783L2237,1785L2246,1333Z" fill="#1a2320" stroke="#1a2320" stroke-width="1.51"/><path d="M-259,998L-400,1396L-226,1347Z" fill="#2a4265" stroke="#2a4265" stroke-width="1.51"/><path d="M-226,1347L-253,1770L93,1599Z" fill="#2a4265" stroke="#2a4265" stroke-width="1.51"/><path d="M-609,897L-400,1396L-259,998Z" fill="#2a4265" stroke="#2a4265" stroke-width="1.51"/><path d="M-400,1396L-253,1770L-226,1347Z" fill="#2a4265" stroke="#2a4265" stroke-width="1.51"/><path d="M93,1599L-253,1770L456,1679Z" fill="#34496c" stroke="#34496c" stroke-width="1.51"/><path d="M456,1679L-253,1770L1994,1783Z" fill="#38505b" stroke="#38505b" stroke-width="1.51"/><path d="M1994,1783L-253,1770L2237,1785Z" fill="#1b2925" stroke="#1b2925" stroke-width="1.51"/><path d="M-44,54L-449,161L-46,195Z" fill="#4a74c4" stroke="#4a74c4" stroke-width="1.51"/><path d="M-125,-416L-449,161L-44,54Z" fill="#2b63b3" stroke="#2b63b3" stroke-width="1.51"/><path d="M-400,1396L-568,1760L-253,1770Z" fill="#2a4265" stroke="#2a4265" stroke-width="1.51"/><path d="M-614,685L-259,998L-118,721Z" fill="#2a4a6d" stroke="#2a4a6d" stroke-width="1.51"/><path d="M-449,161L-614,685L-118,721Z" fill="#396895" stroke="#396895" stroke-width="1.51"/><path d="M1505,-479L2195,-478L425,-560Z" fill="#2a4569" stroke="#2a4569" stroke-width="1.51"/><path d="M1935,-337L2195,-478L1505,-479Z" fill="#2a4265" stroke="#2a4265" stroke-width="1.51"/><path d="M2276,39L2195,-478L2057,1Z" fill="#2a4265" stroke="#2a4265" stroke-width="1.51"/><path d="M324,-525L-125,-416L106,7Z" fill="#3a6bbb" stroke="#3a6bbb" stroke-width="1.51"/><path d="M-499,-515L-125,-416L324,-525Z" fill="#2b63b3" stroke="#2b63b3" stroke-width="1.51"/><path d="M-449,161L-610,37L-614,685Z" fill="#6888d8" stroke="#6888d8" stroke-width="1.51"/><path d="M-125,-416L-610,37L-449,161Z" fill="#2b63b3" stroke="#2b63b3" stroke-width="1.51"/><path d="M-609,897L-568,1760L-400,1396Z" fill="#2a4265" stroke="#2a4265" stroke-width="1.51"/><path d="M425,-560L-499,-515L324,-525Z" fill="#3869b9" stroke="#3869b9" stroke-width="1.51"/><path d="M-125,-416L-499,-515L-610,37Z" fill="#2b63b3" stroke="#2b63b3" stroke-width="1.51"/></svg>